<svg xmlns="http://www.w3.org/2000/svg" width="27.832" height="27.83" viewBox="0 0 27.832 27.83">
  <path id="categories" d="M35.667,17.812a.972.972,0,0,0-1.034-.686h0a13.436,13.436,0,0,0-6.914-6.911v0a.97.97,0,0,0-.687-1.035,16.391,16.391,0,0,0-9.229,0,.97.97,0,0,0-.686,1.034v0a13.421,13.421,0,0,0-6.91,6.911h0a.971.971,0,0,0-1.035.687,16.317,16.317,0,0,0,0,9.229.973.973,0,0,0,1.034.686h0a13.44,13.44,0,0,0,6.912,6.911v0a.97.97,0,0,0,.686,1.034,16.319,16.319,0,0,0,9.229,0,.97.97,0,0,0,.686-1.034v-.005a13.406,13.406,0,0,0,6.91-6.911h0a.973.973,0,0,0,1.034-.686,16.318,16.318,0,0,0,0-9.229Zm-1.956-.59-3.509.366a9.216,9.216,0,0,0-2.948-2.949l.367-3.51a12.562,12.562,0,0,1,6.089,6.092ZM28.1,27.043l1.117.117a8.34,8.34,0,0,1-2.069,2.069l-.117-1.117c0-.022-.011-.042-.015-.064a7.29,7.29,0,0,0,1.02-1.019C28.061,27.032,28.081,27.041,28.1,27.043Zm-11.374,0c.022,0,.042-.011.063-.014a7.3,7.3,0,0,0,1.02,1.019c0,.022-.012.042-.015.064l-.117,1.117a8.341,8.341,0,0,1-2.069-2.069ZM17.8,16.738c0,.022.011.042.014.063a7.319,7.319,0,0,0-1.02,1.02c-.022,0-.042-.012-.063-.014l-1.117-.117a8.341,8.341,0,0,1,2.069-2.069Zm.539,10.6a6.427,6.427,0,0,1-.84-.838.949.949,0,0,0,.022-.819,7.984,7.984,0,0,1,0-6.519.949.949,0,0,0-.022-.82,6.437,6.437,0,0,1,.839-.839.948.948,0,0,0,.82.022,7.987,7.987,0,0,1,6.519,0,.943.943,0,0,0,.823-.019,6.433,6.433,0,0,1,.837.837.949.949,0,0,0-.022.82,7.987,7.987,0,0,1,0,6.519.95.95,0,0,0,.022.821,6.415,6.415,0,0,1-.84.838.949.949,0,0,0-.819-.022,7.987,7.987,0,0,1-6.519,0,.946.946,0,0,0-.819.021ZM28.1,17.807c-.022,0-.042.011-.064.015a7.306,7.306,0,0,0-1.02-1.02c0-.022.012-.042.015-.063l.117-1.117a8.348,8.348,0,0,1,2.07,2.069ZM18.05,10.017a15.51,15.51,0,0,1,8.733,0,.094.094,0,0,1,.062.1l-.683,6.53a.1.1,0,0,1-.05.075.081.081,0,0,1-.078.005,8.865,8.865,0,0,0-7.236,0,.081.081,0,0,1-.078-.005.1.1,0,0,1-.05-.075l-.681-6.53A.094.094,0,0,1,18.05,10.017Zm-.838,1.113.367,3.51a9.21,9.21,0,0,0-2.948,2.948l-3.509-.367a12.548,12.548,0,0,1,6.09-6.091Zm-7.2,15.662a15.44,15.44,0,0,1,0-8.732A.093.093,0,0,1,10.1,18h.011l6.53.683a.1.1,0,0,1,.075.05.081.081,0,0,1,.005.078,8.862,8.862,0,0,0,0,7.236.082.082,0,0,1-.005.078l-.013.015c-.009.006-.019.01-.028.017l-.007.007a.08.08,0,0,1-.027.011l-6.529.682a.1.1,0,0,1-.1-.062Zm1.115.838,3.508-.367a9.211,9.211,0,0,0,2.948,2.948l-.367,3.508a12.567,12.567,0,0,1-6.09-6.089Zm15.722,7.1a.094.094,0,0,1-.062.1,15.5,15.5,0,0,1-8.733,0,.094.094,0,0,1-.062-.1l.683-6.529a.1.1,0,0,1,.05-.075.087.087,0,0,1,.044-.013.082.082,0,0,1,.034.008,8.865,8.865,0,0,0,7.237,0,.081.081,0,0,1,.078.005.1.1,0,0,1,.05.075l.683,6.53Zm.777-1.012-.367-3.51A9.21,9.21,0,0,0,30.2,27.263l3.51.367a12.534,12.534,0,0,1-6.091,6.092Zm7.2-6.93a.093.093,0,0,1-.1.062l-6.531-.683h0c-.009-.008-.017-.017-.027-.025a.432.432,0,0,0-.047-.028.081.081,0,0,1,0-.073,8.865,8.865,0,0,0,0-7.236.081.081,0,0,1,.005-.078.1.1,0,0,1,.075-.05L34.724,18h.011a.093.093,0,0,1,.09.062,15.438,15.438,0,0,1,0,8.732Z" transform="translate(-8.5 -8.512)" fill="#c5d2fb"/>
</svg>