<?xml version="1.0" encoding="iso-8859-1"?>
<svg version="1.1" id="Layer_1" xmlns="http://www.w3.org/2000/svg" xmlns:xlink="http://www.w3.org/1999/xlink" x="0px" y="0px"
	 viewBox="0 0 349.533 349.533" style="enable-background:new 0 0 349.533 349.533;" xml:space="preserve">
	<style>
		g{
			fill: #fff;
		}
	</style>
<g>
	<g>
		<path d="M343.771,74.095L332.245,62.57c-3.698-3.698-8.429-5.677-13.503-5.677c-5.075,0-9.891,1.978-13.503,5.677L144.578,223.232
			l-100.37-100.37c-3.698-3.698-8.429-5.677-13.503-5.677c-5.075,0-9.891,1.978-13.503,5.677L5.677,134.386
			c-7.569,7.311-7.569,19.437,0,27.092l113.358,113.358c0.258,0.258,0.258,0.258,0.602,0.602l11.525,11.525
			c3.355,3.698,8.171,5.677,13.503,5.677c5.075,0,9.891-1.978,13.245-5.333l11.525-11.525c0.258-0.258,0.602-0.258,0.602-0.602
			l173.905-173.906C351.425,93.791,351.425,81.664,343.771,74.095z M339.814,96.887L165.908,270.793
			c0,0.258-0.258,0.258-0.258,0.602l-11.525,11.525c-2.494,2.494-5.935,3.956-9.547,3.956c-3.612,0-7.052-1.376-9.547-4.214
			l-11.267-11.267c-0.258-0.258-0.258-0.258-0.602-0.602L9.547,157.178c-2.494-2.494-3.956-5.935-3.956-9.547
			c0-3.698,1.376-7.052,3.956-9.547l11.525-11.525c2.494-2.494,5.935-3.956,9.547-3.956s7.052,1.376,9.547,3.956l102.348,102.348
			c1.118,1.118,2.838,1.118,3.956,0L309.11,66.269c2.494-2.494,5.935-3.956,9.547-3.956c3.612,0,7.052,1.376,9.547,3.956
			l11.525,11.525C345.232,83.126,345.232,91.555,339.814,96.887z"/>
	</g>
</g>
<g>
	<g>
		<path d="M293.628,97.403c-1.118-1.118-2.838-1.118-3.956,0l-145.18,145.18l-106.82-106.82c-3.956-3.956-10.149-3.956-14.105,0
			l-5.333,5.333c-3.956,3.956-3.956,10.149,0,14.105l6.45,6.45c1.118,1.118,2.838,1.118,3.956,0c1.118-1.118,1.118-2.838,0-3.956
			l-6.45-6.45c-1.72-1.72-1.72-4.472,0-6.193l5.333-5.333c1.72-1.72,4.472-1.72,6.193,0l108.799,108.799
			c0.602,0.602,1.118,0.86,1.978,0.86c0.602,0,1.376-0.258,1.978-0.86L293.628,101.36
			C294.747,100.241,294.747,98.522,293.628,97.403z"/>
	</g>
</g>
<g>
	<g>
		<path d="M331.042,80.547l-5.333-5.333c-3.698-3.698-10.407-3.698-14.105,0l-6.45,6.45c-1.118,1.118-1.118,2.838,0,3.956
			c1.118,1.118,2.838,1.118,3.956,0l6.45-6.45c1.72-1.72,4.472-1.72,6.193,0l5.333,5.333c0.602,0.86,1.118,1.978,1.118,3.096
			s-0.258,2.236-1.118,3.096L147.502,270.278c-0.258,0.258-0.86,0.602-1.376,0.86c-1.72,0.86-3.698,0.258-4.816-0.86l-97.274-97.274
			c-1.118-1.118-2.838-1.118-3.956,0c-1.118,1.118-1.118,2.838,0,3.956l97.274,97.274c1.978,1.72,4.472,2.838,7.052,2.838
			c1.118,0,2.494-0.258,3.698-0.602c1.376-0.602,2.494-1.376,3.355-2.236L331.042,94.651c1.72-1.978,2.838-4.472,2.838-7.052
			C333.88,84.761,333.02,82.524,331.042,80.547z"/>
	</g>
</g>

</svg>
