<svg xmlns="http://www.w3.org/2000/svg" width="20.757" height="26.5" viewBox="0 0 20.757 26.5">
  <g id="customers" transform="translate(-20.8 -8.5)">
    <path id="Path_47" data-name="Path 47" d="M37.863,23.99a1.128,1.128,0,0,0-1.382-.786,1.083,1.083,0,0,0-.763.739H33.55v-.357L33.43,22.2A5.394,5.394,0,0,0,36.5,17.341h1.621a.427.427,0,0,0,.429-.429V15.22a.427.427,0,0,0-.429-.429H36.5v-.906a5.41,5.41,0,0,0-10.819.048v.882H24.065a.427.427,0,0,0-.429.429v1.692a.427.427,0,0,0,.429.429h1.621a5.436,5.436,0,0,0,3.074,4.862l-.1,1.406v.357H26.5a1.118,1.118,0,0,0-2.145.024A4.046,4.046,0,0,0,20.8,28.041v6.53a.429.429,0,1,0,.858,0V28.018a3.2,3.2,0,0,1,2.669-3.17v9.675a.429.429,0,1,0,.858,0V32.665a1.835,1.835,0,0,0,1.43-1.787V24.8h.214a6.469,6.469,0,0,0,2.049,2.979.429.429,0,0,0,.524,0l1.787-1.43,1.787,1.43a.429.429,0,0,0,.524,0A6.652,6.652,0,0,0,35.551,24.8h.191v6.077a1.835,1.835,0,0,0,1.43,1.787v1.859a.429.429,0,1,0,.858,0V24.848a3.2,3.2,0,0,1,2.669,3.17v6.53a.429.429,0,0,0,.858,0v-6.53a4.345,4.345,0,0,0-3.694-4.027ZM31.095,9.334a4.622,4.622,0,0,1,4.576,4.17H26.519A4.622,4.622,0,0,1,31.095,9.334Zm-4.576,5h9.175v.477H26.519Zm-2.026,1.311H37.72v.858H24.494Zm2.026,1.692h9.175a4.588,4.588,0,0,1-9.175,0Zm4.576,5.41a5.484,5.484,0,0,0,1.525-.214l.071,1.168a1.612,1.612,0,0,1-3.217.214V23.7l.071-1.168a6.928,6.928,0,0,0,1.549.214Zm-5.982,9.056V24.3a.31.31,0,1,1,.62,0v6.554A1.083,1.083,0,0,1,25.113,31.807ZM29.069,26.9a6.313,6.313,0,0,1-1.43-2.1h1.215a2.422,2.422,0,0,0,1.287,1.239Zm4.051,0-1.072-.858A2.38,2.38,0,0,0,33.311,24.8H34.55a5.978,5.978,0,0,1-1.43,2.1Zm3.36,3.98V24.3a.31.31,0,1,1,.62,0v7.483A.943.943,0,0,1,36.481,30.877Z" fill="#c5d2fb"/>
    <path id="Path_48" data-name="Path 48" d="M62.248,89.4a.548.548,0,1,0,.548.548A.539.539,0,0,0,62.248,89.4Z" transform="translate(-31.153 -61.621)" fill="#c5d2fb"/>
    <path id="Path_49" data-name="Path 49" d="M62.248,99.3a.548.548,0,1,0,.548.548A.539.539,0,0,0,62.248,99.3Z" transform="translate(-31.153 -69.162)" fill="#c5d2fb"/>
    <path id="Path_50" data-name="Path 50" d="M62.248,109.2a.548.548,0,1,0,.548.548A.539.539,0,0,0,62.248,109.2Z" transform="translate(-31.153 -76.702)" fill="#c5d2fb"/>
    <path id="Path_51" data-name="Path 51" d="M60.132,53.829a.429.429,0,0,0-.858,0,.858.858,0,1,1-1.716,0,.429.429,0,0,0-.858,0,1.7,1.7,0,0,0,1.692,1.692A1.74,1.74,0,0,0,60.132,53.829Z" transform="translate(-27.345 -34.2)" fill="#c5d2fb"/>
  </g>
</svg>
