<svg xmlns="http://www.w3.org/2000/svg" width="27.781" height="27.781" viewBox="0 0 27.781 27.781">
  <g id="garden" transform="translate(-8.505 -8.505)">
    <path id="Path_50" data-name="Path 50" d="M35.976,21.976a30.88,30.88,0,0,1-4.724-2.462,9.712,9.712,0,0,0-2.2-.964,20.868,20.868,0,0,1,1.057-3.273.439.439,0,0,0-.591-.6,20.923,20.923,0,0,1-3.276,1.059,9.712,9.712,0,0,0-.964-2.2,30.921,30.921,0,0,1-2.461-4.721A.437.437,0,0,0,22.4,8.5a.431.431,0,0,0-.422.31,30.88,30.88,0,0,1-2.462,4.724,9.712,9.712,0,0,0-.964,2.2,20.858,20.858,0,0,1-3.273-1.057.439.439,0,0,0-.6.591,20.922,20.922,0,0,1,1.059,3.277,9.708,9.708,0,0,0-2.2.963,30.921,30.921,0,0,1-4.721,2.461.439.439,0,0,0,0,.84,30.88,30.88,0,0,1,4.724,2.462,9.709,9.709,0,0,0,2.2.963,20.858,20.858,0,0,1-1.057,3.273.439.439,0,0,0,.591.6,20.922,20.922,0,0,1,3.276-1.059,9.712,9.712,0,0,0,.964,2.2,31,31,0,0,1,2.461,4.721.437.437,0,0,0,.418.313h0a.44.44,0,0,0,.419-.31,30.88,30.88,0,0,1,2.462-4.724,9.712,9.712,0,0,0,.964-2.2,20.867,20.867,0,0,1,3.273,1.057.433.433,0,0,0,.208.053.439.439,0,0,0,.388-.644,20.922,20.922,0,0,1-1.059-3.276,9.708,9.708,0,0,0,2.2-.964,31,31,0,0,1,4.721-2.461.439.439,0,0,0,0-.84ZM28.95,15.841c-.184.534-.434,1.338-.754,2.515a5.966,5.966,0,0,0-1.721-.041,5.97,5.97,0,0,0-.04-1.721c1.176-.319,1.98-.57,2.515-.753Zm-8.679-1.86c1.132-1.942,1.77-3.177,2.125-3.924.354.747.992,1.982,2.125,3.924a6.207,6.207,0,0,1,.976,4.777.437.437,0,0,0,.05.34,4.55,4.55,0,0,0-2.713-1.248V13.823a.438.438,0,0,0-.876,0V17.85A4.55,4.55,0,0,0,19.243,19.1a.437.437,0,0,0,.05-.34,4.958,4.958,0,0,1-.006-2.364v-.006a8.4,8.4,0,0,1,.983-2.406ZM22.4,26.087A3.692,3.692,0,1,1,26.088,22.4,3.692,3.692,0,0,1,22.4,26.087ZM15.841,15.841c.534.183,1.338.434,2.515.754a5.97,5.97,0,0,0-.041,1.721,5.984,5.984,0,0,0-1.721.04c-.319-1.177-.57-1.98-.753-2.515ZM10.057,22.4c.747-.354,1.982-.992,3.924-2.125a8.4,8.4,0,0,1,2.406-.982h.007a4.959,4.959,0,0,1,2.364.006.437.437,0,0,0,.34-.05,4.55,4.55,0,0,0-1.248,2.713H13.823a.438.438,0,0,0,0,.876H17.85A4.55,4.55,0,0,0,19.1,25.548a.432.432,0,0,0-.34-.05,6.212,6.212,0,0,1-4.777-.976C12.039,23.388,10.8,22.75,10.057,22.4Zm5.784,6.555c.184-.534.434-1.338.754-2.516a5.978,5.978,0,0,0,1.721.041,5.97,5.97,0,0,0,.04,1.721C17.179,28.516,16.375,28.766,15.841,28.95Zm8.679,1.86c-1.132,1.942-1.771,3.177-2.125,3.924-.354-.747-.992-1.982-2.125-3.924a8.4,8.4,0,0,1-.982-2.406V28.4a4.958,4.958,0,0,1,.006-2.364.437.437,0,0,0-.05-.34,4.55,4.55,0,0,0,2.713,1.248v4.027a.438.438,0,0,0,.876,0V26.941a4.55,4.55,0,0,0,2.714-1.248.437.437,0,0,0-.05.34A4.958,4.958,0,0,1,25.5,28.4V28.4a8.4,8.4,0,0,1-.983,2.406Zm4.43-1.86c-.534-.183-1.338-.434-2.515-.754a5.97,5.97,0,0,0,.04-1.721,5.975,5.975,0,0,0,1.721-.04c.319,1.177.57,1.98.753,2.514Zm1.86-4.43A8.4,8.4,0,0,1,28.4,25.5H28.4a4.962,4.962,0,0,1-2.364-.006.437.437,0,0,0-.34.05,4.55,4.55,0,0,0,1.249-2.713h4.027a.438.438,0,1,0,0-.876H26.941a4.55,4.55,0,0,0-1.248-2.714.438.438,0,0,0,.34.05,4.961,4.961,0,0,1,2.365-.006h0a8.4,8.4,0,0,1,2.408.982c1.942,1.132,3.177,1.771,3.924,2.125-.747.355-1.983.993-3.924,2.126Z" fill="#c5d2fb"/>
    <path id="Path_51" data-name="Path 51" d="M62.3,51.851c-.046,0-.092,0-.137,0a.438.438,0,0,0,.019.876H62.2l.1,0a.438.438,0,1,0,0-.876Z" transform="translate(-39.909 -32.497)" fill="#c5d2fb"/>
    <path id="Path_52" data-name="Path 52" d="M53.243,53.581a3.032,3.032,0,0,0-1.392,2.555.438.438,0,1,0,.876,0,2.159,2.159,0,0,1,.991-1.82.438.438,0,1,0-.476-.736Z" transform="translate(-32.496 -33.74)" fill="#c5d2fb"/>
  </g>
</svg>
