<svg xmlns="http://www.w3.org/2000/svg" width="28.392" height="26.608" viewBox="0 0 28.392 26.608">
  <g id="logs" transform="translate(-33.229 0.371)">
    <path id="Path_57" data-name="Path 57" d="M33.229,90.352a.446.446,0,0,0,.893,0,.149.149,0,1,1,.3,0,.446.446,0,1,0,.893,0,1.042,1.042,0,0,0-2.083,0Z" transform="translate(0 -66.807)" fill="#c5d2fb"/>
    <path id="Path_58" data-name="Path 58" d="M51.463,83.435a.446.446,0,1,0,.893,0,.149.149,0,0,1,.3,0,.446.446,0,1,0,.893,0,1.042,1.042,0,1,0-2.083,0Z" transform="translate(-13.583 -61.654)" fill="#c5d2fb"/>
    <path id="Path_59" data-name="Path 59" d="M103.333,91.789a.446.446,0,1,0,.893,0,.149.149,0,1,1,.3,0,.446.446,0,0,0,.893,0,1.042,1.042,0,0,0-2.083,0Z" transform="translate(-52.223 -67.878)" fill="#c5d2fb"/>
    <path id="Path_60" data-name="Path 60" d="M36.314,40.882a7.628,7.628,0,0,1-4.33-1.7c-2.738-2.008-5.572-3.658-10.122-1.839-3.221,1.288-6.976,2.318-10.932.748a10.28,10.28,0,0,0,2.859-1.5c2.624-1.924,5.133-3.382,9.263-1.731,3.907,1.562,8.566,2.76,13.51-.2a.446.446,0,1,0-.459-.765c-.206.123-.412.237-.618.345a8.757,8.757,0,0,1-3.5-1.609,15.533,15.533,0,0,0-3.523-2.074,12.306,12.306,0,0,0,8.1-1.71.446.446,0,1,0-.459-.765c-4.083,2.446-8.009,1.828-11.427.626a.446.446,0,0,0-.069-.069,5.129,5.129,0,0,1-1.38-1.7,2.59,2.59,0,0,0,1.5-1.122,2.594,2.594,0,0,0,1.135-.077,1.9,1.9,0,0,0,2.822,0,2.747,2.747,0,0,0,4.244-.071q.077.005.153.005a2.233,2.233,0,0,0,1.855-3.478,3.082,3.082,0,0,0-2.1-3.146l-1.191-.391a.442.442,0,0,0-.139-.022H15.937A6,6,0,0,0,13.3,30.023l-.041.03a9.454,9.454,0,0,1-2.595,1.369,12.425,12.425,0,0,1-1.524-.776.446.446,0,1,0-.459.765c4.943,2.961,9.6,1.764,13.51.2,4.132-1.652,6.639-.194,9.263,1.731a10.364,10.364,0,0,0,2.758,1.469c-3.918,1.515-7.636.491-10.83-.784-4.55-1.82-7.384-.168-10.122,1.84A8.647,8.647,0,0,1,9.656,37.5c-.171-.092-.342-.188-.513-.291a.446.446,0,1,0-.459.765c4.943,2.961,9.6,1.763,13.51.2,4.13-1.652,6.639-.193,9.263,1.731a8.609,8.609,0,0,0,4.832,1.873h.063a.447.447,0,1,0-.037-.893ZM33.078,24.774a1.358,1.358,0,0,1-.271-.027.445.445,0,0,0-.466.2,1.855,1.855,0,0,1-3.267-.248.446.446,0,0,0-.835.048,1.013,1.013,0,0,1-1.842.225.445.445,0,0,0-.568-.175,1.7,1.7,0,0,1-1.208.079.446.446,0,0,0-.541.248A1.7,1.7,0,0,1,21,25.179.446.446,0,0,0,20.356,25a1.414,1.414,0,1,1-1.284-2.507l.035-.013a1.39,1.39,0,0,1,.973,0,.446.446,0,0,0,.587-.317,1.413,1.413,0,0,1,2.641-.306.447.447,0,0,0,.695.134,1.69,1.69,0,0,1,2.467.238.446.446,0,0,0,.77-.11,1.016,1.016,0,0,1,1.908.028.446.446,0,0,0,.654.23,1.874,1.874,0,0,1,1.964.012.447.447,0,0,0,.508-.02,1.326,1.326,0,0,1,.8-.27,1.341,1.341,0,0,1,0,2.683Zm-1.65-5.253,1.122.369a2.188,2.188,0,0,1,1.42,1.5,2.222,2.222,0,0,0-1.982.1,2.767,2.767,0,0,0-2.229-.09,1.908,1.908,0,0,0-3.02-.165,2.583,2.583,0,0,0-2.916-.215,2.307,2.307,0,0,0-3.879.506,2.245,2.245,0,0,0-.344-.026,2.318,2.318,0,0,0-.259.016,3.092,3.092,0,0,0-1.168-1.988Zm-20.6,5.11a5.114,5.114,0,0,1,5.049-5.107l1.113.366a2.189,2.189,0,0,1,1.491,1.895,2.307,2.307,0,0,0,1.944,4.172,2.561,2.561,0,0,0,1.858,1.062,5.99,5.99,0,0,0,.546.99c-3.749-1.307-6.31-.2-8.672,1.411a5.1,5.1,0,0,1-3.33-4.788Zm11.036,6.153c-2.947,1.178-6.34,2.14-9.926,1.093a10.923,10.923,0,0,0,1.853-1.1c2.624-1.924,5.133-3.383,9.263-1.731a28.407,28.407,0,0,0,2.774.963,9.754,9.754,0,0,0-3.964.779Z" transform="translate(24.831 -19)" fill="#c5d2fb"/>
    <path id="Path_61" data-name="Path 61" d="M78.415,96.16A1.043,1.043,0,0,0,77.374,97.2a.446.446,0,0,0,.893,0,.149.149,0,1,1,.3,0,.446.446,0,1,0,.893,0A1.043,1.043,0,0,0,78.415,96.16Z" transform="translate(-32.885 -71.91)" fill="#c5d2fb"/>
    <path id="Path_62" data-name="Path 62" d="M62.441,98.117A1.043,1.043,0,0,0,61.4,99.158a.446.446,0,0,0,.893,0,.149.149,0,0,1,.3,0,.446.446,0,1,0,.893,0A1.043,1.043,0,0,0,62.441,98.117Z" transform="translate(-20.986 -73.368)" fill="#c5d2fb"/>
  </g>
</svg>
