<svg xmlns="http://www.w3.org/2000/svg" width="26.74" height="26.741" viewBox="0 0 26.74 26.741">
  <g id="main" transform="translate(-8.499 -8.496)">
    <path id="Path_24" data-name="Path 24" d="M35.218,20.85a14.381,14.381,0,0,0-5.45-7.1.42.42,0,0,0-.2-.142,22.739,22.739,0,0,0-6.137-2.96l4.52-1.325a.422.422,0,0,0-.237-.809l-5.844,1.713L16.026,8.514a.422.422,0,0,0-.237.809l4.52,1.325a22.741,22.741,0,0,0-6.137,2.959.419.419,0,0,0-.2.142,14.377,14.377,0,0,0-5.45,7.1.422.422,0,0,0,.255.53,8.672,8.672,0,0,0,2.852.422V34.815a.422.422,0,0,0,.422.422H31.689a.422.422,0,0,0,.422-.422v-12.3a2.6,2.6,0,0,0,3.1-1.386.423.423,0,0,0,0-.279ZM21.869,11.1a21.876,21.876,0,0,1,6.677,2.832,18.712,18.712,0,0,1-6.677,1.134A18.706,18.706,0,0,1,15.2,13.929,21.949,21.949,0,0,1,21.869,11.1Zm0,13.185c.111,0,.22.007.328.017v10.1h-.657V24.3C21.649,24.289,21.759,24.281,21.869,24.281Zm3.794,3.794v6.318H23.041V24.469A3.8,3.8,0,0,1,25.664,28.076ZM20.7,34.394H18.075V28.076A3.8,3.8,0,0,1,20.7,24.469Zm5.809,0V28.076a4.642,4.642,0,0,0-3.8-4.558l-.011,0a4.417,4.417,0,0,0-1.654,0l-.011,0a4.642,4.642,0,0,0-3.8,4.558v6.318H12.471V25.345H15.4a.422.422,0,1,0,0-.843H12.471v-.648H15.4a.422.422,0,1,0,0-.843H12.471V21.75a8.244,8.244,0,0,0,1.7-.366c2.346-.775,3.146-.146,3.92.462a3.481,3.481,0,0,0,1.192.7,2.442,2.442,0,0,0,.675.1,4.293,4.293,0,0,0,2.984-1.824c.655-.768,1.029-.543,1.848-.051a3.606,3.606,0,0,0,3.164.622,2.631,2.631,0,0,1,2.774.513,4.222,4.222,0,0,0,.538.361v9.02h-2.14a.422.422,0,0,0,0,.843h2.141v.763H28.344a.422.422,0,1,0,0,.843h2.924v.663Zm5.3-12.811a2.122,2.122,0,0,1-.568-.355,3.454,3.454,0,0,0-3.529-.647,2.831,2.831,0,0,1-2.483-.538c-.8-.482-1.807-1.084-2.924.226-1.072,1.257-1.932,1.708-2.786,1.464a2.775,2.775,0,0,1-.9-.55,3.744,3.744,0,0,0-2.543-1,6.948,6.948,0,0,0-2.163.4,8.194,8.194,0,0,1-4.441.12,13.633,13.633,0,0,1,4.9-6.208,19.013,19.013,0,0,0,7.5,1.407,18.987,18.987,0,0,0,7.5-1.409,13.562,13.562,0,0,1,4.991,6.462c-.187.334-.83,1.126-2.557.625Z" transform="translate(0 0)" fill="#c5d2fb"/>
    <path id="Path_25" data-name="Path 25" d="M28.752,82.75A1.847,1.847,0,1,0,30.6,84.6,1.847,1.847,0,0,0,28.752,82.75Zm0,2.851a1,1,0,1,1,1-1A1,1,0,0,1,28.752,85.6Z" transform="translate(-13.972 -56.366)" fill="#c5d2fb"/>
    <path id="Path_26" data-name="Path 26" d="M89.454,84.6a1.847,1.847,0,1,0-1.847,1.847A1.847,1.847,0,0,0,89.454,84.6Zm-2.851,0a1,1,0,1,1,1,1A1,1,0,0,1,86.6,84.6Z" transform="translate(-58.649 -56.365)" fill="#c5d2fb"/>
    <path id="Path_27" data-name="Path 27" d="M27.168,40.348l-.093.079a.422.422,0,0,0,.554.635L27.707,41a.422.422,0,1,0-.54-.647Z" transform="translate(-14.001 -24.105)" fill="#c5d2fb"/>
    <path id="Path_28" data-name="Path 28" d="M18.8,44.839a.421.421,0,0,0-.593.061,16.517,16.517,0,0,0-1.571,2.357.422.422,0,0,0,.744.4,15.964,15.964,0,0,1,1.481-2.222.421.421,0,0,0-.061-.593Z" transform="translate(-6.136 -27.516)" fill="#c5d2fb"/>
  </g>
</svg>
