<svg id="Layer_1" enable-background="new 0 0 496.02 496.02" height="512" viewBox="0 0 496.02 496.02" width="512" xmlns="http://www.w3.org/2000/svg"><g><path d="m184.099 128.025h15.911v95.985c0 4.418 3.582 8 8 8s8-3.582 8-8v-103.985c0-4.418-3.582-8-8-8h-23.911c-6.629 0-10.453-7.558-6.448-12.896l57.545-76.728c6.395-8.525 19.168-8.53 25.566 0l57.545 76.728c3.978 5.303.225 12.896-6.448 12.896h-23.849c-4.418 0-8 3.582-8 8v31.985c0 4.418 3.582 8 8 8s8-3.582 8-8v-23.985h15.849c19.817 0 31.137-22.647 19.248-38.496l-57.545-76.728c-12.799-17.065-38.366-17.066-51.166 0l-57.545 76.728c-11.89 15.852-.565 38.496 19.248 38.496z"/><path d="m232.01 288.01c0-4.418-3.582-8-8-8h-103.986c-4.418 0-8 3.582-8 8v23.91c0 6.662-7.577 10.437-12.896 6.448l-76.726-57.545c-8.526-6.394-8.531-19.167 0-25.564l76.727-57.546c5.304-3.978 12.896-.226 12.896 6.448v23.849c0 4.418 3.582 8 8 8h31.986c4.418 0 8-3.582 8-8s-3.582-8-8-8h-23.986v-15.849c0-19.816-22.645-31.137-38.496-19.248l-76.727 57.545c-17.065 12.799-17.072 38.36 0 51.166l76.727 57.545c15.719 11.788 38.496.728 38.496-19.249v-15.91h95.986c4.418 0 7.999-3.582 7.999-8z"/><path d="m311.921 367.995h-15.911v-95.985c0-4.418-3.582-8-8-8s-8 3.582-8 8v103.985c0 4.418 3.582 8 8 8h23.911c6.629 0 10.453 7.558 6.448 12.896l-57.545 76.728c-6.395 8.525-19.168 8.53-25.566 0l-57.545-76.728c-3.978-5.303-.225-12.896 6.448-12.896h23.849c4.418 0 8-3.582 8-8v-31.985c0-4.418-3.582-8-8-8s-8 3.582-8 8v23.985h-15.849c-19.817 0-31.137 22.647-19.248 38.496l57.545 76.728c12.799 17.065 38.366 17.066 51.166 0l57.545-76.728c11.891-15.852.565-38.496-19.248-38.496z"/><path d="m483.219 222.396-76.727-57.545c-15.855-11.889-38.496-.563-38.496 19.249v15.91h-95.986c-4.418 0-8 3.582-8 8s3.582 8 8 8h103.986c4.418 0 8-3.582 8-8v-23.91c0-6.671 7.588-10.43 12.896-6.448l76.726 57.545c8.526 6.394 8.531 19.167 0 25.564l-76.727 57.546c-5.304 3.978-12.896.226-12.896-6.448v-23.849c0-4.418-3.582-8-8-8h-31.985c-4.418 0-8 3.582-8 8s3.582 8 8 8h23.986v15.849c0 19.793 22.623 31.153 38.496 19.248l76.727-57.545c17.065-12.799 17.072-38.361 0-51.166z"/></g></svg>