<svg xmlns="http://www.w3.org/2000/svg" width="24.37" height="33.771" viewBox="0 0 24.37 33.771">
  <g id="rights" transform="translate(-24.536 -8.5)">
    <path id="Path_53" data-name="Path 53" d="M48.9,35.345l-.346-6.1a2.945,2.945,0,0,0-2.534-2.729l-.087-1.838,1.13.078H47.1a.536.536,0,0,0,.54-.532V22.545a.529.529,0,0,0-.172-.389.545.545,0,0,0-.406-.141l-1.251.087-.077-1.628a1.837,1.837,0,0,0,1.729-1.817V16.674a1.839,1.839,0,0,0-1.85-1.823h-.145l-.276-5.844a.537.537,0,0,0-.539-.507H40.528A.539.539,0,0,0,40,8.909l-.517,2.132-2.38-2.382a.544.544,0,0,0-.386-.159H34.456a.541.541,0,0,0-.492.312l-1.549,3.363-.938-3.286a.539.539,0,0,0-.52-.389H28.786a.537.537,0,0,0-.54.508l-.276,5.843h-.145a1.839,1.839,0,0,0-1.849,1.823v1.982A1.837,1.837,0,0,0,27.7,20.474L27.628,22.1l-1.251-.087a.545.545,0,0,0-.407.142.529.529,0,0,0-.172.39v1.673a.536.536,0,0,0,.54.532h.038l1.13-.078-.087,1.838a2.945,2.945,0,0,0-2.534,2.73l-.346,6.1a2.934,2.934,0,0,0,2.32,3.021L26.7,41.714a.528.528,0,0,0,.149.392.544.544,0,0,0,.39.165H46.2a.544.544,0,0,0,.391-.165.528.528,0,0,0,.149-.393l-.158-3.347a2.934,2.934,0,0,0,2.32-3.021Zm-2.339-11.7-3.31-.229v-.071l3.31-.229Zm-.177-6.974v1.982a.766.766,0,0,1-.769.758H41.782a.768.768,0,0,1-.763-.658l-.268-1.981a.751.751,0,0,1,.184-.6.775.775,0,0,1,.579-.259h4.1A.766.766,0,0,1,46.385,16.674ZM27.056,18.657V16.674a.766.766,0,0,1,.769-.758h4.1a.775.775,0,0,1,.579.259.751.751,0,0,1,.183.6l-.268,1.982a.768.768,0,0,1-.763.658H27.825A.766.766,0,0,1,27.056,18.657Zm-.176,4.461,3.31.229v.072l-3.31.229Zm3.887,1.329a.536.536,0,0,0,.5-.531V22.85a.536.536,0,0,0-.5-.531l-2.061-.143.08-1.7h2.871A1.846,1.846,0,0,0,33.492,18.9l.268-1.982a1.805,1.805,0,0,0-.442-1.442,1.862,1.862,0,0,0-1.392-.622H29.052l.25-5.286h1.246l1.228,4.3a.543.543,0,0,0,1.012.076L34.8,9.565h1.69L39.4,12.473a.546.546,0,0,0,.53.139.536.536,0,0,0,.381-.389l.645-2.658h3.184l.25,5.286H41.513a1.862,1.862,0,0,0-1.392.622,1.806,1.806,0,0,0-.442,1.442l.268,1.982a1.846,1.846,0,0,0,1.834,1.582h2.871l.08,1.7-2.061.143a.536.536,0,0,0-.5.531v1.065a.536.536,0,0,0,.5.531l2.175.152.089,1.879H39.33a2.818,2.818,0,0,0,.269-1.566L38.54,16.045a.538.538,0,0,0-.537-.47H35.438a.538.538,0,0,0-.537.47l-1.059,8.866a2.818,2.818,0,0,0,.269,1.566H28.5l.089-1.879Zm4.594,1.987a1.775,1.775,0,0,1-.447-1.4l1-8.4h1.606l1,8.4a1.786,1.786,0,0,1-1.06,1.843,1.836,1.836,0,0,1-2.1-.443ZM27.808,41.206l.131-2.769H45.5l.131,2.769Zm19.5-4.418a1.884,1.884,0,0,1-1.31.58h-.011l-.053,0H27.507a1.9,1.9,0,0,1-1.374-.583,1.847,1.847,0,0,1-.514-1.384l.346-6.1a1.88,1.88,0,0,1,1.888-1.759H35a2.929,2.929,0,0,0,3.439,0h7.148A1.88,1.88,0,0,1,47.476,29.3l.346,6.1a1.831,1.831,0,0,1-.514,1.385Z" transform="translate(0)" fill="#c5d2fb"/>
    <path id="Path_54" data-name="Path 54" d="M51.376,74.583H32.749a.781.781,0,0,0-.849.587l-.363,4.752a.536.536,0,0,0,.231.462,1.021,1.021,0,0,0,.619.195H51.739a1.022,1.022,0,0,0,.618-.194.536.536,0,0,0,.231-.462l-.363-4.752A.781.781,0,0,0,51.376,74.583ZM32.87,77.357a16.679,16.679,0,0,0,2.965.277,12.192,12.192,0,0,0,2.332-.213c7.692-1.508,11.967-.622,13.068-.325l.05.658a29.306,29.306,0,0,0-10.92.16,17.878,17.878,0,0,1-7.548.115Zm18.237-1.945.06.79c-1.733-.4-6.07-1-13.295.419a13.615,13.615,0,0,1-4.939-.111l.084-1.1ZM32.687,79.75l.065-.866A16.455,16.455,0,0,0,36.1,79.2a22.382,22.382,0,0,0,4.576-.49,28.005,28.005,0,0,1,10.674-.084l.086,1.121Z" transform="translate(-5.342 -44.661)" fill="#c5d2fb"/>
    <path id="Path_55" data-name="Path 55" d="M35.581,37.7h2.151a.414.414,0,0,0,0-.829H35.581a.414.414,0,0,0,0,.829Z" transform="translate(-8.113 -19.68)" fill="#c5d2fb"/>
    <path id="Path_56" data-name="Path 56" d="M80.664,37.7h2.151a.414.414,0,0,0,0-.829H80.664a.414.414,0,0,0,0,.829Z" transform="translate(-36.842 -19.68)" fill="#c5d2fb"/>
  </g>
</svg>
