<svg xmlns="http://www.w3.org/2000/svg" width="23" height="12.431" viewBox="0 0 23 12.431">
  <g id="show" transform="translate(-4 -9)">
    <g id="Path_57" data-name="Path 57" transform="translate(4 9)" fill="none">
      <path d="M11.5,0C17.851,0,23,6.216,23,6.216s-5.149,6.216-11.5,6.216S0,6.216,0,6.216,5.149,0,11.5,0Z" stroke="none"/>
      <path d="M 11.5 0.9999980926513672 C 6.871175765991211 0.9999980926513672 2.821706771850586 4.697914600372314 1.354894638061523 6.215645313262939 C 2.822305679321289 7.733964443206787 6.871530532836914 11.43133735656738 11.5 11.43133735656738 C 16.12882232666016 11.43133735656738 20.17829322814941 7.733420848846436 21.64510536193848 6.215690135955811 C 20.17769432067871 4.697371006011963 16.12846946716309 0.9999980926513672 11.5 0.9999980926513672 M 11.5 -1.9073486328125e-06 C 17.85127067565918 -1.9073486328125e-06 23 6.215667724609375 23 6.215667724609375 C 23 6.215667724609375 17.85127067565918 12.43133735656738 11.5 12.43133735656738 C 5.14872932434082 12.43133735656738 0 6.215667724609375 0 6.215667724609375 C 0 6.215667724609375 5.14872932434082 -1.9073486328125e-06 11.5 -1.9073486328125e-06 Z" stroke="none" fill="#fff"/>
    </g>
    <g id="Ellipse_8" data-name="Ellipse 8" transform="translate(13 13)" fill="none" stroke="#fff" stroke-width="1">
      <circle cx="2.5" cy="2.5" r="2.5" stroke="none"/>
      <circle cx="2.5" cy="2.5" r="2" fill="none"/>
    </g>
  </g>
</svg>
