<svg xmlns="http://www.w3.org/2000/svg" width="31.449" height="20.426" viewBox="0 0 31.449 20.426">
  <g id="statistic" transform="translate(-8.5 -27.954)">
    <path id="Path_42" data-name="Path 42" d="M38.032,30.918H32.084a.921.921,0,0,1-.883-.65L30.588,28.3a.5.5,0,0,0-.473-.348H18.334a.5.5,0,0,0-.473.348l-.613,1.965a.921.921,0,0,1-.883.65h-1.1V29.46a.5.5,0,0,0-.5-.5H11.042a.5.5,0,0,0-.5.5v1.458h-.129A1.919,1.919,0,0,0,8.5,32.835V45.446a1.919,1.919,0,0,0,1.917,1.917h9.919a7.945,7.945,0,0,0,7.777,0h9.919a1.919,1.919,0,0,0,1.917-1.917V32.835A1.919,1.919,0,0,0,38.032,30.918Zm-26.494-.963h2.729v.963H11.538Zm5.708,10.455a6.979,6.979,0,1,1,6.979,6.979,6.979,6.979,0,0,1-6.979-6.979Zm21.712,5.037a.926.926,0,0,1-.925.925H29.506a7.971,7.971,0,1,0-10.563,0H10.417a.926.926,0,0,1-.925-.925V32.835a.926.926,0,0,1,.925-.925h9.236a.5.5,0,1,0,0-.992H18.038a1.927,1.927,0,0,0,.156-.355l.505-1.617h11.05l.5,1.617a1.909,1.909,0,0,0,1.83,1.347h5.948a.926.926,0,0,1,.926.925Z" transform="translate(0)" fill="#c5d2fb"/>
    <path id="Path_43" data-name="Path 43" d="M49.072,51.085a5.9,5.9,0,1,0,5.9,5.9A5.9,5.9,0,0,0,49.072,51.085Zm0,10.811a4.91,4.91,0,1,1,4.91-4.91A4.91,4.91,0,0,1,49.072,61.9Z" transform="translate(-24.847 -16.577)" fill="#c5d2fb"/>
    <path id="Path_44" data-name="Path 44" d="M58.349,57.937c-.066.02-.131.043-.2.066a.5.5,0,1,0,.34.931q.074-.028.149-.051a.5.5,0,1,0-.294-.947Z" transform="translate(-35.352 -21.472)" fill="#c5d2fb"/>
    <path id="Path_45" data-name="Path 45" d="M50.679,61.1a4.1,4.1,0,0,0-1.255,2.965.5.5,0,1,0,.992,0,3.114,3.114,0,0,1,.954-2.253.5.5,0,1,0-.69-.712Z" transform="translate(-29.329 -23.652)" fill="#c5d2fb"/>
    <path id="Path_46" data-name="Path 46" d="M101.8,45.613H99.033a.5.5,0,0,0-.5.5v2.764a.5.5,0,0,0,.5.5H101.8a.5.5,0,0,0,.5-.5V46.109a.5.5,0,0,0-.5-.5Zm-.5,2.764H99.529V46.6H101.3Z" transform="translate(-64.527 -12.656)" fill="#c5d2fb"/>
  </g>
</svg>
