<svg id="success" xmlns="http://www.w3.org/2000/svg" width="26.533" height="33.376" viewBox="0 0 26.533 33.376">
  <g id="Group_13" data-name="Group 13" transform="translate(0.488 0.489)">
    <circle id="Ellipse_3" data-name="Ellipse 3" cx="4.4" cy="4.4" r="4.4" transform="translate(8.378 23.598)" fill="#20c85c"/>
    <circle id="Ellipse_4" data-name="Ellipse 4" cx="2.64" cy="2.64" r="2.64" transform="translate(10.138)" fill="#20c85c"/>
    <path id="Path_34" data-name="Path 34" d="M219.835,16.513c0,.032,0,.064,0,.1a2.64,2.64,0,0,1-4.3,2.053,2.64,2.64,0,1,0,4.3-2.15Z" transform="translate(-205.397 -15.925)" fill="#20c85c"/>
    <path id="Path_35" data-name="Path 35" d="M84.514,97.408H60.993a1.013,1.013,0,0,1-.828-1.6l1.24-1.735a3.952,3.952,0,0,0,.737-2.3V84.13a10.611,10.611,0,0,1,21.223,0v7.644a3.952,3.952,0,0,0,.737,2.3l1.24,1.735A1.013,1.013,0,0,1,84.514,97.408Z" transform="translate(-59.975 -69.243)" fill="#20c85c"/>
    <path id="Path_36" data-name="Path 36" d="M85.341,100.747,84.1,99.012a3.952,3.952,0,0,1-.737-2.3V89.07a10.591,10.591,0,0,0-7.917-10.237,10.55,10.55,0,0,1,4.006,8.281l.472,5.454a7.2,7.2,0,0,1-7.176,7.824H60.418l-.253.354a1.013,1.013,0,0,0,.828,1.6H84.514A1.013,1.013,0,0,0,85.341,100.747Z" transform="translate(-59.975 -74.183)" fill="#14b74e"/>
    <g id="Group_12" data-name="Group 12" transform="translate(11.193 8.23)">
      <path id="Path_37" data-name="Path 37" d="M233.26,145.934a.807.807,0,0,1-.8-.743l-.776-9.728a1.586,1.586,0,1,1,3.161,0l-.776,9.728A.807.807,0,0,1,233.26,145.934Z" transform="translate(-231.674 -133.752)" fill="#fff"/>
      <circle id="Ellipse_5" data-name="Ellipse 5" cx="1.102" cy="1.102" r="1.102" transform="translate(0.484 14.126)" fill="#fff"/>
    </g>
  </g>
  <path id="Path_38" data-name="Path 38" d="M78.74,26.768,77.5,25.033a3.444,3.444,0,0,1-.646-2.014V15.376A11.1,11.1,0,0,0,68.491,4.646a3.129,3.129,0,1,0-5.474,0,11.1,11.1,0,0,0-8.363,10.729V23.02a3.444,3.444,0,0,1-.646,2.014l-1.24,1.735a1.5,1.5,0,0,0,1.225,2.375h6.915a4.89,4.89,0,0,0,9.3,1.368.489.489,0,1,0-.89-.405,3.912,3.912,0,0,1-7.418-.963H77.515a1.5,1.5,0,0,0,1.225-2.375ZM65.754.978a2.151,2.151,0,0,1,1.708,3.459,11.194,11.194,0,0,0-3.416,0A2.151,2.151,0,0,1,65.754.978Zm11.76,27.187H53.994a.528.528,0,0,1-.43-.828L54.8,25.6a4.416,4.416,0,0,0,.828-2.582V15.376a10.123,10.123,0,0,1,20.245,0V23.02A4.417,4.417,0,0,0,76.7,25.6l1.24,1.735A.529.529,0,0,1,77.515,28.165ZM65.754,8.23a2.074,2.074,0,0,0-2.068,2.239l.4,4.975a.489.489,0,1,0,.975-.078l-.4-4.975a1.1,1.1,0,1,1,2.187,0l-.776,9.728a.318.318,0,0,1-.634,0l-.24-3.007a.489.489,0,1,0-.975.078l.24,3.007a1.3,1.3,0,0,0,2.584,0l.776-9.728A2.074,2.074,0,0,0,65.754,8.23Zm0,14.126a1.59,1.59,0,1,0,1.59,1.59A1.592,1.592,0,0,0,65.754,22.356Zm0,2.2a.613.613,0,1,1,.613-.613A.613.613,0,0,1,65.754,24.559Z" transform="translate(-52.488 0)"/>
</svg>
