<svg id="langs" xmlns="http://www.w3.org/2000/svg" width="26.604" height="27.488" viewBox="0 0 26.604 27.488">
  <path id="Path_52" data-name="Path 52" d="M49.923,73.172a.434.434,0,0,0-.576.211,8.038,8.038,0,0,0-.44,1.218.433.433,0,1,0,.835.232,7.167,7.167,0,0,1,.392-1.086A.434.434,0,0,0,49.923,73.172Z" transform="translate(-39.328 -57.127)" fill="#c5d2fb"/>
  <path id="Path_53" data-name="Path 53" d="M53.49,69.973a.432.432,0,0,0,.312-.132l.018-.018a.43.43,0,0,0,.038-.6.436.436,0,0,0-.611-.05.938.938,0,0,0-.069.067.433.433,0,0,0,.312.734Z" transform="translate(-42.464 -54.07)" fill="#c5d2fb"/>
  <path id="Path_54" data-name="Path 54" d="M35.634,14.6V8.933A.433.433,0,0,0,35.2,8.5H33.064a.433.433,0,0,0-.433.433v5.654a1.461,1.461,0,0,0-1.3,1.235,2.988,2.988,0,0,0-2.15-.913H14.672a3,3,0,0,0-3,3v.921h-.956a.433.433,0,0,0-.433.433v2.748a.433.433,0,0,0,.433.433h.956v.921a3,3,0,0,0,3,3h3.944c0,.064-.006.126-.006.186a5.605,5.605,0,0,0,1.812,3.9v1.681a3.863,3.863,0,0,0,3.86,3.86h7.491a3.863,3.863,0,0,0,3.86-3.86v-7.51a1.461,1.461,0,0,0,1.256-1.443V16.04A1.461,1.461,0,0,0,35.634,14.6Zm-.867-5.23v5.214H33.5V9.367ZM23.427,30.448a5.609,5.609,0,0,0,1.813-3.9c0-.06,0-.122-.006-.186h3.943a3,3,0,0,0,2.809-1.958,1.448,1.448,0,0,0,.644.223v7.66a.7.7,0,0,1-.7.7h-7.81a.7.7,0,0,1-.7-.7Zm-5.77-6.68,2.387-6.262h.527l-2.387,6.262Zm-1.605,0,2.386-6.262h.678l-2.386,6.262Zm-1.379,0a.4.4,0,0,1-.4-.4V17.909a.4.4,0,0,1,.4-.4H17.51l-2.386,6.262ZM21.5,17.506h.184L19.3,23.768h-.184Zm1.111,0h6.568a.4.4,0,0,1,.4.4v5.457a.4.4,0,0,1-.4.4H24.443a3.207,3.207,0,0,0-2.518-1.986,2.031,2.031,0,0,0-1.067.32ZM32.176,19.7H32.7v1.881h-.523ZM11.151,21.578V19.7h.523v1.881ZM14.672,25.5a2.134,2.134,0,0,1-2.132-2.131V17.909a2.134,2.134,0,0,1,2.132-2.131H29.178a2.134,2.134,0,0,1,2.131,2.131v5.457A2.134,2.134,0,0,1,29.178,25.5H25.1a6.975,6.975,0,0,0-.265-.862h4.34a1.271,1.271,0,0,0,1.269-1.269V17.909a1.271,1.271,0,0,0-1.269-1.269H14.672A1.271,1.271,0,0,0,13.4,17.909v5.457a1.271,1.271,0,0,0,1.269,1.269h4.34a6.975,6.975,0,0,0-.265.862Zm4.8,1.053c0-1.433,1.21-3.9,2.448-3.9s2.448,2.469,2.448,3.9a4.716,4.716,0,0,1-1.62,3.328l-.005,0a1.288,1.288,0,0,1-1.648,0l0,0A4.723,4.723,0,0,1,19.476,26.55Zm12.3,8.572H24.283a3,3,0,0,1-2.993-2.993V30.94a1.973,1.973,0,0,0,1.271,0v1.347a1.565,1.565,0,0,0,1.563,1.563h7.809A1.565,1.565,0,0,0,33.5,32.287V24.635h1.271v7.494A3,3,0,0,1,31.774,35.122Zm4.249-11.946a.594.594,0,0,1-.593.593H32.768a.594.594,0,0,1-.593-.593v-.731h.956a.433.433,0,0,0,.433-.433V19.263a.433.433,0,0,0-.433-.433h-.956V16.04a.594.594,0,0,1,.593-.593H35.43a.594.594,0,0,1,.593.593Z" transform="translate(-10.285 -8.5)" fill="#c5d2fb"/>
</svg>
