<svg id="Capa_1" enable-background="new 0 0 512 512" height="512" viewBox="0 0 512 512" width="512" xmlns="http://www.w3.org/2000/svg"><g><path d="m463.829 278.5c-4.142 0-7.5 3.358-7.5 7.5v136.258c0 15.815-12.866 28.681-28.681 28.681h-297.234c-15.815 0-28.682-12.866-28.682-28.681v-378.577c0-15.815 12.867-28.681 28.682-28.681h47.351c4.142 0 7.5-3.358 7.5-7.5s-3.358-7.5-7.5-7.5h-47.351c-24.086 0-43.682 19.595-43.682 43.681v2.381h-2.382c-24.084 0-43.679 19.594-43.679 43.679v378.58c0 24.085 19.595 43.679 43.679 43.679h297.241c24.084 0 43.679-19.594 43.679-43.679v-2.382h2.378c24.086 0 43.681-19.595 43.681-43.681v-136.258c0-4.142-3.358-7.5-7.5-7.5zm-53.559 189.821c0 15.813-12.865 28.679-28.679 28.679h-297.241c-15.813 0-28.679-12.865-28.679-28.679v-378.58c0-15.814 12.865-28.679 28.679-28.679h2.382v361.196c0 24.086 19.596 43.681 43.682 43.681h279.856z"/><path d="m471.329 180.59c-.001-29.761-11.591-57.739-32.633-78.781l-69.176-69.176c-21.044-21.044-49.024-32.633-78.787-32.633h-15.305-67.664c-4.142 0-7.5 3.358-7.5 7.5s3.358 7.5 7.5 7.5h67.664c28.04 0 50.852 22.812 50.852 50.852v35.515c0 24.086 19.595 43.681 43.681 43.681h35.515c28.04 0 50.852 22.812 50.852 50.852v60.1c0 4.142 3.358 7.5 7.5 7.5s7.5-3.358 7.5-7.5v-60.1-15.305-.004c.001 0 .001 0 .001-.001zm-65.852-50.542h-35.515c-15.815 0-28.681-12.866-28.681-28.681v-35.515c0-17.519-6.877-33.463-18.074-45.273 13.277 4.735 25.444 12.399 35.707 22.661l69.176 69.177c10.262 10.262 17.926 22.429 22.661 35.706-11.811-11.197-27.755-18.075-45.274-18.075z"/><path d="m251.271 405.272h55.519c8.691 0 15.763-7.071 15.763-15.762v-98.282h16.103c6.398 0 12.114-3.819 14.563-9.73 2.448-5.911 1.107-12.654-3.417-17.178l-52.739-52.74c-4.816-4.816-11.22-7.469-18.031-7.469s-13.214 2.652-18.031 7.469l-52.739 52.74c-4.524 4.524-5.865 11.267-3.417 17.178s8.165 9.73 14.563 9.73h16.103v98.282c-.002 8.691 7.069 15.762 15.76 15.762zm-31.865-129.045c-.19 0-.509 0-.704-.471-.195-.47.03-.696.165-.831l52.739-52.74c1.983-1.983 4.62-3.075 7.424-3.075 2.805 0 5.441 1.092 7.424 3.075l52.74 52.74c.135.135.36.36.165.831s-.514.471-.704.471h-23.603c-4.142 0-7.5 3.358-7.5 7.5v105.782c0 .42-.342.762-.763.762h-55.519c-.42 0-.762-.342-.762-.762v-105.782c0-4.142-3.358-7.5-7.5-7.5z"/><path d="m214.646 195.353h128.77c13.014 0 23.601-10.587 23.601-23.601v-.442c0-13.014-10.587-23.601-23.601-23.601h-128.77c-13.014 0-23.601 10.587-23.601 23.601v.442c-.001 13.014 10.587 23.601 23.601 23.601zm-8.602-24.043c0-4.743 3.858-8.601 8.601-8.601h128.77c4.743 0 8.601 3.858 8.601 8.601v.442c0 4.743-3.858 8.601-8.601 8.601h-128.77c-4.743 0-8.601-3.858-8.601-8.601z"/></g></svg>